<svg version="1.1" id="Layer_1" xmlns="http://www.w3.org/2000/svg" x="0" y="0" viewBox="0 0 3165 946" xml:space="preserve"><style>.st0{fill:#010102}</style><path class="st0" d="M530.93 164.9s-78.98 67.19-26.21 202.75c0 0 20.68-67.85 116.87-130.33 0 0-55.08-2.97-107.38 58.35.01 0-10.99-38.14 16.72-130.77z"/><ellipse transform="rotate(-45.001 335.862 410.288)" class="st0" cx="335.87" cy="410.28" rx="32.62" ry="44.73"/><path class="st0" d="M828.74 635.88c-102.8 173.21-262.32 181.54-262.32 181.54-149.13 20.33-252.31-66.6-252.31-66.6l596.24-529.36c-24.29-34.72-52.4-66.82-84.07-94.98C719.56 31.55 571.7-8.2 431.76 20.28 243.09 58.69 95.79 215 63.72 404.17c-3.3 19.47-5.25 39.18-5.79 58.92-5.52 200.38 141.2 401.73 335.25 455.24 369.02 101.73 538.04-224.21 538.04-224.21l-102.48-58.24zm-621.89-22.67c-6.93-17.75-12.95-35.9-17.79-54.35-8.31-31.8-13.11-64.6-13.06-97.5.14-90.97 40.32-174.91 105.62-237.19 84.75-80.83 207.1-118.75 322.05-89.66 37.67 9.55 73.59 26.05 105.51 48.19 2.04 1.43 37.82 29.74 36.94 30.51-.14.13-513.98 455.92-513.98 455.92s-23.21-50.6-25.29-55.92z"/><g><path class="st0" d="M1507.11 849.09c14.5 0 42.16-5.83 42.16-24.67 0-41.86-111.82-21.38-111.82-97.32 0-44.7 44.1-62.04 82.37-62.04 21.08 0 46.19 7.32 65.18 16.14l-2.29 5.84c-6.08 15.54-22.91 23.91-39.01 19.53-8.13-2.21-16.32-3.7-23.73-3.7-15.85 0-42.16 3.44-42.16 24.37 0 42.75 111.67 21.53 111.67 97.32 0 43.95-44.55 62.19-82.37 62.19-23.32 0-48.73-8.97-70.11-17.94l2.61-6.26c6.4-15.34 23.39-23.56 39.27-18.65 9.73 3.02 19.63 5.19 28.23 5.19zM1864.15 668.5v44.69h-59.59v169.68h-49.51V713.19h-61.77V668.5h170.87zM2070.06 887.8c-62.19 0-113.31-49.18-113.31-111.82 0-62.49 51.13-112.42 113.31-112.42s113.46 49.93 113.46 112.42c0 62.79-51.27 111.82-113.46 111.82zm61.95-111.84c0-34.58-26.98-62.96-61.95-62.96-34.84 0-61.95 28.38-61.95 62.96 0 34.46 27.24 62.71 61.95 62.71 34.71 0 61.95-28.25 61.95-62.71zM2391.23 808.87h-35.88v74h-40.36V668.5h81.47c39.02 0 74.15 30.05 74.15 70.26 0 25.41-14.35 50.83-38.42 60.69l53.07 83.42h-27.45c-12.59 0-24.29-6.48-30.97-17.15l-35.61-56.85zm-36.78-37.07h42.01c18.69 0 33.64-13.01 33.64-32.14 0-18.98-15.1-32.14-33.64-32.14h-42.01v64.28zM2766.2 668.5v38.12l-110.02-.15v46.19h85.21v37.82h-85.21v54.12h110.02v38.27h-150.39V668.5h150.39z"/></g><g><path class="st0" d="M1486.13 180.3h-379.67v107.75h379.67v80.2h-379.67V476l379.67-.04v80.2l-456.44.04V100.09h456.44v80.21zM1762.57 299.35l242.79-202.67v459.5h-79.42V266.94l-163.37 131.28-159.13-131.25v289.24l-81.25-.03V96.68l240.38 202.67zM2500.72 411.96c0 41.36-11.7 75.76-35.08 103.22-23.39 27.46-51.79 41.2-85.19 41.2h-216.19c-33.41 0-61.81-13.73-85.19-41.2-23.39-27.46-35.08-61.86-35.08-103.22V244.52c0-41.35 11.69-75.76 35.08-103.22 23.38-27.46 51.78-41.2 85.19-41.2h216.19c33.4 0 61.8 13.73 85.19 41.2 23.38 27.46 35.08 61.87 35.08 103.22v167.44zm-81.63 16.84V227.42c0-30.55-25.03-45.82-48.81-45.82H2175.4c-23.78 0-52.1 15.27-52.1 45.82V428.8c0 30.55 31.6 45.82 55.39 45.82h188.3c23.78 0 52.1-15.27 52.1-45.82zM3110 556.07h-79.31V100.1H3110v455.97zM2780.27 100.1v81.64h131.91v231.92s6.93 61.17-44.3 61.17H2662.78c-5.37 0-10.51.43-15.49-2.05-18.54-9.23-29.99-28.6-30.35-49.28-.21-11.8 0-23.63 0-35.43v-45.51h-79.67v72.25c0 22.15.76 43.25 8.98 64.09 4.86 12.33 11.45 24 19.85 34.28 14.2 17.38 33.83 29.61 55.12 36.37 23.64 7.51 47.78 6.53 72.28 6.53h105.35c24.68 0 49.39.28 74.05.12 22.48-.15 44.78-9.57 63.66-21.26 17.73-10.98 32.96-26.13 42.78-44.64 13.28-25.03 14.29-51.98 14.29-79.47V344.7v-87.52-85.11-58.9-12.96c0 .02-213.36-.11-213.36-.11z"/></g></svg>