<svg xmlns="http://www.w3.org/2000/svg" width="512" height="512"><path xmlns="http://www.w3.org/2000/svg" d="M504.5 37.5v437c0 16.57-13.43 30-30 30h-437c-16.57 0-30-13.43-30-30v-437c0-16.57 13.43-30 30-30h437c16.57 0 30 13.43 30 30zm0 0" fill="#dd2b19" data-original="#f75820"/><path xmlns="http://www.w3.org/2000/svg" d="M69.84 504.5H37.5c-16.57 0-30-13.43-30-30v-437c0-16.57 13.43-30 30-30h32.34c-16.57 0-30 13.43-30 30v437c0 16.57 13.43 30 30 30zm0 0" fill="#e52121" data-original="#f88224"/><path xmlns="http://www.w3.org/2000/svg" d="M504.5 37.5v437c0 16.57-13.43 30-30 30H281.3C429.41 333.86 446.29 95.84 447.122 7.5H474.5c16.57 0 30 13.43 30 30zm0 0" fill="#e51212" data-original="#f93212"/><path xmlns="http://www.w3.org/2000/svg" d="M141.094 149.523v212.954c0 6.851 7.222 11.3 13.344 8.218L365.844 264.22c6.75-3.399 6.75-13.04 0-16.438L154.438 141.305c-6.122-3.082-13.344 1.367-13.344 8.218zm0 0" fill="#f9f9f9" data-original="#deefff"/><path xmlns="http://www.w3.org/2000/svg" d="M199.738 512H37.5C16.82 512 0 495.18 0 474.5v-437C0 16.82 16.82 0 37.5 0h116.238a7.5 7.5 0 110 15H37.5C25.094 15 15 25.094 15 37.5v437c0 12.406 10.094 22.5 22.5 22.5h162.238a7.5 7.5 0 110 15zm0 0M504.5 140.238a7.497 7.497 0 01-7.5-7.5V37.5c0-12.406-10.094-22.5-22.5-22.5H188.262a7.5 7.5 0 110-15H474.5C495.18 0 512 16.82 512 37.5v95.238c0 4.145-3.355 7.5-7.5 7.5zm0 0M474.5 512H234.262a7.5 7.5 0 110-15H474.5c12.406 0 22.5-10.094 22.5-22.5V167.262c0-4.145 3.355-7.5 7.5-7.5s7.5 3.355 7.5 7.5V474.5c0 20.68-16.82 37.5-37.5 37.5zm0 0" data-original="#000000"/><path xmlns="http://www.w3.org/2000/svg" d="M150.285 379.195c-3.031 0-6.055-.836-8.75-2.496-4.972-3.066-7.941-8.383-7.941-14.222V149.523c0-5.84 2.969-11.156 7.941-14.222 4.973-3.063 11.059-3.324 16.274-.696l211.41 106.477c5.668 2.856 9.187 8.57 9.187 14.918s-3.52 12.063-9.191 14.918L157.809 377.395a16.698 16.698 0 01-7.524 1.8zm.004-231.386c-.36 0-.664.125-.887.265a1.626 1.626 0 00-.808 1.45v212.953c0 .785.437 1.222.808 1.449.371.23.957.426 1.66.07L362.47 257.52c.625-.313.937-.825.937-1.52s-.312-1.207-.933-1.52l-211.41-106.476a1.701 1.701 0 00-.774-.195zm0 0" data-original="#000000"/></svg>