<svg height="512pt" viewBox="0 0 512 512" width="512pt" xmlns="http://www.w3.org/2000/svg"><path d="M504.5 37.5v437c0 16.57-13.43 30-30 30h-437c-16.57 0-30-13.43-30-30v-437c0-16.57 13.43-30 30-30h437c16.57 0 30 13.43 30 30zm0 0" fill="#f73e80"/><path d="M504.5 37.5v437c0 16.57-13.43 30-30 30H113.828c241.043-126.57 285.563-408.66 286.39-497H474.5c16.57 0 30 13.43 30 30zm0 0" fill="#f89928"/><path d="M504.5 37.5v437c0 16.57-13.43 30-30 30H251.3C399.41 333.86 416.29 95.84 417.122 7.5H474.5c16.57 0 30 13.43 30 30zm0 0" fill="#f8c828"/><path d="M69.84 504.5H37.5c-16.57 0-30-13.43-30-30v-437c0-16.57 13.43-30 30-30h32.34c-16.57 0-30 13.43-30 30v437c0 16.57 13.43 30 30 30zm0 0" fill="#f86091"/><path d="M326.172 7.5C161.879 75.5 80.309 177.07 39.84 262.398c-16.988 35.793-26.738 68.73-32.34 95.133V37.5c0-16.57 13.43-30 30-30zm0 0" fill="#4c60dc"/><path d="M69.84 7.5c-16.57 0-30 13.43-30 30v224.898c-16.988 35.793-26.738 68.73-32.34 95.133V37.5c0-16.57 13.43-30 30-30zm0 0" fill="#1680f6"/><path d="M504.5 37.5v437c0 16.57-13.43 30-30 30H281.3C429.41 333.86 446.29 95.84 447.122 7.5H474.5c16.57 0 30 13.43 30 30zm0 0" fill="#f8b824"/><path d="M434.79 149.84a89.73 89.73 0 00-3.84-13.219c-13.34-35.851-47.91-61.46-88.36-61.46H169.41c-4.969 0-9.851.39-14.61 1.128-43.812 6.852-77.722 43.992-79.562 89.262-.047 1.27-.078 2.558-.078 3.87v173.157c0 51.98 42.281 94.262 94.25 94.262h173.18c51.969 0 94.25-42.281 94.25-94.262V169.422c0-6.711-.7-13.262-2.05-19.582zm-38.95 192.738c0 24.66-16.82 45.442-39.59 51.48a53.07 53.07 0 01-13.66 1.782H169.41c-29.36 0-53.25-23.88-53.25-53.262V169.422c0-29.371 23.89-53.262 53.25-53.262h173.18c29.36 0 53.25 23.89 53.25 53.262zm0 0" fill="#deefff"/><path d="M436.84 169.422v173.156c0 51.98-42.281 94.262-94.25 94.262h-11.078c8.91-14.059 17.136-28.352 24.738-42.781 22.77-6.04 39.59-26.82 39.59-51.48v-39.09c19.219-53.7 31.351-106.52 38.95-153.65a93.558 93.558 0 012.05 19.583zm0 0" fill="#b8daef"/><path d="M256 339.973c-46.305 0-83.973-37.668-83.973-83.973 0-46.3 37.668-83.973 83.973-83.973 46.3 0 83.973 37.672 83.973 83.973 0 46.305-37.672 83.973-83.973 83.973zm0-128.137c-24.352 0-44.164 19.812-44.164 44.164 0 24.355 19.812 44.164 44.164 44.164s44.164-19.809 44.164-44.164c0-24.352-19.812-44.164-44.164-44.164zm0 0M362.828 164c0 9.293-7.535 16.828-16.828 16.828-9.297 0-16.828-7.535-16.828-16.828 0-9.297 7.531-16.828 16.828-16.828 9.293 0 16.828 7.531 16.828 16.828zm0 0" fill="#deefff"/><path d="M474.5 0h-437C16.82 0 0 16.82 0 37.5v114.453c0 4.14 3.36 7.5 7.5 7.5s7.5-3.36 7.5-7.5V37.5C15 25.094 25.094 15 37.5 15h437c12.406 0 22.5 10.094 22.5 22.5v437c0 12.406-10.094 22.5-22.5 22.5h-437C25.094 497 15 486.906 15 474.5V186.477c0-4.141-3.36-7.5-7.5-7.5s-7.5 3.359-7.5 7.5V474.5C0 495.18 16.82 512 37.5 512h437c20.68 0 37.5-16.82 37.5-37.5v-437C512 16.82 495.18 0 474.5 0zm0 0"/><path d="M436.844 232.105a7.5 7.5 0 007.5-7.5v-55.19c0-56.11-45.649-101.759-101.758-101.759H169.414c-56.11 0-101.758 45.649-101.758 101.758v173.172c0 56.11 45.649 101.762 101.758 101.762h173.172c56.11 0 101.758-45.653 101.758-101.762v-83.457c0-4.145-3.356-7.5-7.5-7.5a7.5 7.5 0 00-7.5 7.5v83.457c0 47.84-38.918 86.762-86.758 86.762H169.414c-47.84 0-86.758-38.922-86.758-86.762V169.414c0-47.84 38.918-86.758 86.758-86.758h173.172c47.84 0 86.758 38.918 86.758 86.758v55.188a7.503 7.503 0 007.5 7.503zm0 0"/><path d="M277.852 403.344h64.734c33.504 0 60.758-27.254 60.758-60.758V169.414c0-33.504-27.254-60.758-60.758-60.758H169.414c-33.504 0-60.758 27.254-60.758 60.758v173.172c0 33.504 27.254 60.758 60.758 60.758h73.914c4.145 0 7.5-3.356 7.5-7.5a7.5 7.5 0 00-7.5-7.5h-73.914c-25.23 0-45.758-20.528-45.758-45.758V169.414c0-25.23 20.528-45.758 45.758-45.758h173.172c25.23 0 45.758 20.528 45.758 45.758v173.172c0 25.23-20.528 45.758-45.758 45.758h-64.734a7.5 7.5 0 100 15zm0 0"/><path d="M256 164.527c-50.438 0-91.473 41.036-91.473 91.473s41.036 91.473 91.473 91.473 91.473-41.035 91.473-91.473-41.035-91.473-91.473-91.473zm0 167.946c-42.168 0-76.473-34.305-76.473-76.473s34.305-76.473 76.473-76.473 76.473 34.305 76.473 76.473-34.305 76.473-76.473 76.473zm0 0"/><path d="M256 204.336c-28.488 0-51.664 23.176-51.664 51.664s23.176 51.668 51.664 51.668 51.664-23.18 51.664-51.668-23.176-51.664-51.664-51.664zm0 88.328c-20.219 0-36.664-16.445-36.664-36.664S235.78 219.336 256 219.336 292.664 235.78 292.664 256 276.22 292.664 256 292.664zm0 0M370.328 164c0-13.414-10.914-24.328-24.328-24.328S321.672 150.586 321.672 164s10.914 24.328 24.328 24.328 24.328-10.914 24.328-24.328zm-33.656 0c0-5.145 4.183-9.328 9.328-9.328s9.328 4.183 9.328 9.328-4.187 9.328-9.328 9.328c-5.145 0-9.328-4.183-9.328-9.328zm0 0"/></svg>