<svg height="512pt" viewBox="0 0 512 512" width="512pt" xmlns="http://www.w3.org/2000/svg"><path d="M504.5 37.5v437c0 16.57-13.43 30-30 30h-437c-16.57 0-30-13.43-30-30v-437c0-16.57 13.43-30 30-30h437c16.57 0 30 13.43 30 30zm0 0" fill="#deefff"/><path d="M69.84 504.5H37.5c-16.57 0-30-13.43-30-30v-437c0-16.57 13.43-30 30-30h32.34c-16.57 0-30 13.43-30 30v437c0 16.57 13.43 30 30 30zm0 0" fill="#f0f8ff"/><path d="M504.5 37.5v437c0 16.57-13.43 30-30 30H281.3C429.41 333.86 446.29 95.84 447.122 7.5H474.5c16.57 0 30 13.43 30 30zm0 0" fill="#b8daef"/><path d="M425.86 254.98c.331 56.7-26.801 106.88-69.02 137.95a168.69 168.69 0 01-26.852 16.148c-21.84 10.524-46.328 16.512-72.27 16.774-32.48.32-62.878-8.48-88.808-24l-53.851 9.796c-6.868 1.25-12.88-4.757-11.63-11.628l9.532-52.38c-17.34-27-27.242-59.23-26.813-93.8C87.29 161.94 165.051 85.629 256.95 86.14c74.88.4 138.29 49.27 160.461 116.82a168.2 168.2 0 013.98 14.18 170.303 170.303 0 014.47 37.84zm0 0" fill="#5bdc67"/><path d="M425.86 254.98c.331 56.7-26.801 106.88-69.02 137.95 30.691-58.551 51.07-119.301 64.55-175.79a170.303 170.303 0 014.47 37.84zm0 0" fill="#1fc474"/><path d="M163.406 173.395c-.308 3.94-1.847 7.656-3.886 11.046-3.754 6.235-4.606 14.106-1.622 21.348 13.747 33.32 33.735 63.234 59.407 88.91 25.672 25.672 55.586 45.656 88.906 59.403 7.242 2.988 15.113 2.132 21.348-1.618 3.39-2.039 7.105-3.582 11.05-3.89 5.336-.418 10.2-4.246 11.371-10.063l5.672-28.117a12.742 12.742 0 00-5.96-13.457l-25.036-14.95a12.736 12.736 0 00-14.676 1.138l-14.843 12.332c-15.996-9.528-30.785-21.04-44.176-34.43-13.399-13.399-24.91-28.184-34.434-44.184l12.328-14.843a12.737 12.737 0 001.141-14.672l-14.95-25.04a12.745 12.745 0 00-13.46-5.956l-28.117 5.671c-5.817 1.172-9.64 6.032-10.063 11.372zm0 0" fill="#deefff"/><path d="M474.5 512h-437C16.82 512 0 495.18 0 474.5v-437C0 16.82 16.82 0 37.5 0h99.238a7.5 7.5 0 110 15H37.5C25.094 15 15 25.094 15 37.5v437c0 12.406 10.094 22.5 22.5 22.5h437c12.406 0 22.5-10.094 22.5-22.5v-437c0-12.406-10.094-22.5-22.5-22.5H171.262a7.5 7.5 0 110-15H474.5C495.18 0 512 16.82 512 37.5v437c0 20.68-16.82 37.5-37.5 37.5zm0 0"/><path d="M315.254 363.715a31.16 31.16 0 01-11.902-2.352c-34.239-14.12-64.973-34.652-91.348-61.031-26.375-26.375-46.91-57.11-61.035-91.352-3.762-9.117-2.969-19.613 2.12-28.074 1.727-2.867 2.657-5.41 2.84-7.77.704-8.913 7.305-16.37 16.055-18.136l28.121-5.672c8.395-1.687 16.989 2.113 21.38 9.465l14.952 25.039c4.391 7.352 3.665 16.723-1.808 23.313l-8.902 10.714c8.648 13.746 18.906 26.582 30.535 38.211 11.633 11.633 24.468 21.887 38.21 30.535l10.72-8.898c6.585-5.477 15.956-6.203 23.312-1.809l25.035 14.95c7.352 4.39 11.156 12.98 9.465 21.379l-5.672 28.12c-1.766 8.75-9.223 15.352-18.137 16.055-2.36.184-4.902 1.114-7.77 2.84a31.4 31.4 0 01-16.171 4.473zM170.887 174.313c-.375 4.734-1.989 9.417-4.942 14.328-2.691 4.476-3.097 9.804-1.11 14.62 13.364 32.403 32.806 61.497 57.774 86.466s54.059 44.406 86.461 57.77c4.82 1.987 10.149 1.585 14.621-1.11 4.91-2.95 9.598-4.567 14.329-4.938 1.917-.152 4.085-1.469 4.609-4.066l5.672-28.117a5.252 5.252 0 00-2.453-5.54l-25.036-14.949a5.253 5.253 0 00-6.039.47l-14.843 12.331a7.504 7.504 0 01-8.63.676c-16.519-9.836-31.874-21.805-45.644-35.574-13.77-13.77-25.742-29.13-35.574-45.645a7.496 7.496 0 01.676-8.629l12.332-14.847a5.247 5.247 0 00.469-6.036l-14.954-25.035a5.25 5.25 0 00-5.535-2.453l-28.117 5.672c-2.601.523-3.918 2.691-4.066 4.606zm0 0"/><path d="M275.586 432.586a7.499 7.499 0 01-7.441-6.656 7.498 7.498 0 016.601-8.297c82.363-9.356 144.106-79.121 143.613-162.278-.203-34.476-11.078-67.351-31.453-95.07a7.5 7.5 0 0112.086-8.883c22.262 30.29 34.149 66.203 34.367 103.868.536 90.835-66.925 167.042-156.918 177.265-.289.035-.574.05-.855.05zm0 0M241.082 433.031c-.219 0-.437-.008-.66-.027-25.945-2.266-50.457-9.977-72.906-22.934l-51.114 9.29a17.5 17.5 0 01-15.504-4.84 17.503 17.503 0 01-4.843-15.508l9-49.508c-17.703-28.621-26.825-61.55-26.403-95.426.578-46.433 19.618-90.383 53.61-123.758 33.754-33.136 77.68-51.351 123.77-51.351.32 0 .636.004.956.004 43.61.238 85.45 16.457 117.813 45.668a7.5 7.5 0 01.539 10.593 7.5 7.5 0 01-10.594.54c-29.621-26.739-67.918-41.583-107.84-41.801-42.504-.215-82.992 16.476-114.136 47.054-31.149 30.578-48.594 70.793-49.122 113.239-.394 31.93 8.461 62.933 25.618 89.656a7.514 7.514 0 011.066 5.394l-9.523 52.38a2.438 2.438 0 00.695 2.214c.344.348 1.09.899 2.215.692l53.851-9.79a7.475 7.475 0 015.192.942c21.148 12.656 44.351 20.16 68.96 22.305a7.5 7.5 0 016.821 8.12 7.5 7.5 0 01-7.461 6.852zm0 0"/></svg>