<svg xmlns="http://www.w3.org/2000/svg" width="800" height="800"><path fill="#FFF" d="M683.871 326.882H25.807v146.236h748.387V326.882h-38.709c-7.127 0-12.903-5.777-12.903-12.903h-25.807c-.001 7.125-5.778 12.903-12.904 12.903zM443.664 436.813c-1.161.325-2.331.48-3.481.48-5.644 0-10.825-3.73-12.42-9.432l-5.7-20.376-9.159 2.566v29.518c0 7.126-5.777 12.902-12.903 12.902s-12.903-5.776-12.903-12.902v-29.518l-9.159-2.567-5.7 20.377c-1.92 6.861-9.041 10.87-15.901 8.951-6.863-1.92-10.87-9.039-8.952-15.901l9.177-32.809a12.904 12.904 0 0115.908-8.95l14.627 4.098v-10.706c-4.936-1.812-8.457-6.553-8.457-12.117 0-7.126 5.777-12.903 12.903-12.903h8.457c7.126 0 12.903 5.777 12.903 12.903v22.823l14.627-4.098c3.297-.925 6.825-.5 9.809 1.179s5.179 4.473 6.099 7.771l9.177 32.809c1.918 6.863-2.089 13.983-8.952 15.902z"/><path fill="#333" d="M24.807 497.925h750.387v148.236H24.807z"/><path fill="#333" d="M25.807 498.925h748.387v146.236H25.807z"/><path fill="#ED1F34" d="M695.774 314.979v-1c0-6.563-5.34-11.903-11.903-11.903H24.807V153.839h750.387v148.236h-39.709c-6.563 0-11.903 5.34-11.903 11.903v1h-27.808z"/><path fill="#ED1F34" d="M683.871 301.075c7.126 0 12.903 5.777 12.903 12.903h25.807c0-7.126 5.776-12.903 12.903-12.903h38.709V154.839H25.807v146.236h658.064z"/><path d="M787.097 129.032H12.903C5.777 129.032 0 134.81 0 141.936v516.129c0 7.126 5.777 12.903 12.903 12.903h774.193c7.126 0 12.903-5.777 12.903-12.903V141.936c.001-7.126-5.776-12.904-12.902-12.904zm-12.904 25.807v146.236h-38.709c-7.127 0-12.903 5.777-12.903 12.903s5.776 12.903 12.903 12.903h38.709v146.236H25.807V326.882h658.064c7.126 0 12.903-5.777 12.903-12.903s-5.777-12.903-12.903-12.903H25.807V154.839h748.386zM25.807 645.161V498.925h748.387v146.236H25.807z"/><path fill="#F2A643" d="M443.439 388.103a12.904 12.904 0 00-15.908-8.95l-14.629 4.1V360.43c0-7.126-5.777-12.903-12.903-12.903h-8.458c-7.126 0-12.903 5.777-12.903 12.903 0 5.564 3.522 10.305 8.458 12.117v10.707l-14.627-4.098a12.903 12.903 0 00-15.908 8.95l-9.177 32.809c-1.92 6.862 2.087 13.981 8.951 15.901 6.861 1.918 13.982-2.089 15.902-8.951l5.699-20.377 9.16 2.567v29.516c0 7.126 5.777 12.902 12.903 12.902s12.903-5.776 12.903-12.902v-29.518l9.159-2.567 5.7 20.377c1.595 5.701 6.774 9.432 12.419 9.432 1.149 0 2.321-.155 3.482-.48 6.863-1.92 10.87-9.039 8.951-15.901l-9.174-32.811z"/></svg>