<svg version="1.1" id="Layer_1" xmlns="http://www.w3.org/2000/svg" x="0" y="0" viewBox="0 0 3165 946" xml:space="preserve"><style>.st0{fill:#fff}</style><path class="st0" d="M530.9 164.9s-79 67.2-26.2 202.8c0 0 20.7-67.9 116.9-130.3 0 0-55.1-3-107.4 58.3 0 0-11-38.2 16.7-130.8z"/><ellipse transform="rotate(-45.001 335.859 410.283)" class="st0" cx="335.9" cy="410.3" rx="32.6" ry="44.7"/><path class="st0" d="M828.7 635.9C725.9 809.1 566.4 817.4 566.4 817.4c-149.1 20.3-252.3-66.6-252.3-66.6l596.2-529.4c-24.3-34.7-52.4-66.8-84.1-95C719.6 31.5 571.7-8.2 431.8 20.3 243.1 58.7 95.8 215 63.7 404.2c-3.3 19.5-5.3 39.2-5.8 58.9-5.5 200.4 141.2 401.7 335.3 455.2 369 101.7 538-224.2 538-224.2l-102.5-58.2zm-621.8-22.7c-6.9-17.8-12.9-35.9-17.8-54.3-8.3-31.8-13.1-64.6-13.1-97.5.1-91 40.3-174.9 105.6-237.2 84.8-80.8 207.1-118.8 322-89.7 37.7 9.6 73.6 26.1 105.5 48.2 2 1.4 37.8 29.7 36.9 30.5-.1.1-514 455.9-514 455.9s-23.1-50.6-25.1-55.9z"/><g><path class="st0" d="M1507.1 849.1c14.5 0 42.2-5.8 42.2-24.7 0-41.9-111.8-21.4-111.8-97.3 0-44.7 44.1-62 82.4-62 21.1 0 46.2 7.3 65.2 16.1l-2.3 5.8c-6.1 15.5-22.9 23.9-39 19.5-8.1-2.2-16.3-3.7-23.7-3.7-15.8 0-42.2 3.4-42.2 24.4 0 42.8 111.7 21.5 111.7 97.3 0 44-44.6 62.2-82.4 62.2-23.3 0-48.7-9-70.1-17.9l2.6-6.3c6.4-15.3 23.4-23.6 39.3-18.7 9.6 3.1 19.5 5.3 28.1 5.3zM1864.2 668.5v44.7h-59.6v169.7h-49.5V713.2h-61.8v-44.7h170.9zM2070.1 887.8c-62.2 0-113.3-49.2-113.3-111.8 0-62.5 51.1-112.4 113.3-112.4 62.2 0 113.5 49.9 113.5 112.4-.1 62.8-51.3 111.8-113.5 111.8zM2132 776c0-34.6-27-63-61.9-63-34.8 0-61.9 28.4-61.9 63 0 34.5 27.2 62.7 61.9 62.7s61.9-28.3 61.9-62.7zM2391.2 808.9h-35.9v74H2315V668.5h81.5c39 0 74.1 30 74.1 70.3 0 25.4-14.4 50.8-38.4 60.7l53.1 83.4h-27.4c-12.6 0-24.3-6.5-31-17.2l-35.7-56.8zm-36.8-37.1h42c18.7 0 33.6-13 33.6-32.1 0-19-15.1-32.1-33.6-32.1h-42v64.2zM2766.2 668.5v38.1l-110-.2v46.2h85.2v37.8h-85.2v54.1h110v38.3h-150.4V668.5h150.4z"/></g><g><path class="st0" d="M1486.1 180.3h-379.7V288h379.7v80.2h-379.7V476h379.7v80.2h-456.4V100.1h456.4v80.2zM1762.6 299.4l242.8-202.7v459.5H1926V266.9l-163.4 131.3L1603.4 267v289.2h-81.3V96.7l240.5 202.7zM2500.7 412c0 41.4-11.7 75.8-35.1 103.2-23.4 27.5-51.8 41.2-85.2 41.2h-216.2c-33.4 0-61.8-13.7-85.2-41.2-23.4-27.5-35.1-61.9-35.1-103.2V244.5c0-41.3 11.7-75.8 35.1-103.2 23.4-27.5 51.8-41.2 85.2-41.2h216.2c33.4 0 61.8 13.7 85.2 41.2 23.4 27.5 35.1 61.9 35.1 103.2V412zm-81.6 16.8V227.4c0-30.6-25-45.8-48.8-45.8h-194.9c-23.8 0-52.1 15.3-52.1 45.8v201.4c0 30.5 31.6 45.8 55.4 45.8H2367c23.8 0 52.1-15.2 52.1-45.8zM3110 556.1h-79.3v-456h79.3v456zM2780.3 100.1v81.6h131.9v231.9s6.9 61.2-44.3 61.2H2662.8c-5.4 0-10.5.4-15.5-2-18.5-9.2-30-28.6-30.4-49.3-.2-11.8 0-23.6 0-35.4v-45.5h-79.7v72.3c0 22.1.8 43.3 9 64.1 4.9 12.3 11.4 24 19.9 34.3 14.2 17.4 33.8 29.6 55.1 36.4 23.6 7.5 47.8 6.5 72.3 6.5h105.4c24.7 0 49.4.3 74.1.1 22.5-.2 44.8-9.6 63.7-21.3 17.7-11 33-26.1 42.8-44.6 13.3-25 14.3-52 14.3-79.5v-66.1-87.5-85.1-58.9-13c-.2-.1-213.5-.2-213.5-.2z"/></g></svg>